<?xml version="1.0" standalone="no"?>
<!DOCTYPE svg PUBLIC "-//W3C//DTD SVG 20010904//EN"
 "http://www.w3.org/TR/2001/REC-SVG-20010904/DTD/svg10.dtd">
<svg version="1.0" xmlns="http://www.w3.org/2000/svg"
 width="576.000000pt" height="192.000000pt" viewBox="0 0 576.000000 192.000000"
 preserveAspectRatio="xMidYMid meet">

<g transform="translate(0.000000,192.000000) scale(0.100000,-0.100000)"
fill="#000000" stroke="none">
<path d="M872 1560 c-1 -53 6 -111 18 -155 10 -38 17 -71 16 -72 -1 -1 -34 6
-73 16 -40 10 -73 17 -75 16 -2 -2 -3 13 -3 32 0 27 -7 40 -28 57 -25 18 -42
21 -125 20 -83 0 -109 -5 -180 -32 -98 -37 -205 -99 -196 -114 4 -6 3 -8 -3
-5 -16 10 -88 -57 -132 -124 -44 -66 -74 -151 -85 -239 l-7 -55 56 -55 55 -54
0 86 c0 100 24 188 70 261 16 26 30 51 30 55 1 12 107 95 173 135 65 39 199
87 245 87 75 -1 90 -25 45 -72 l-27 -28 65 0 c35 0 96 -7 134 -16 39 -8 83
-17 98 -21 l29 -6 -25 49 c-38 77 -59 152 -67 239 l-7 80 -1 -85z"/>
<path d="M5 835 c18 -154 69 -303 141 -411 166 -247 373 -379 651 -415 143
-18 206 10 206 92 0 51 -28 80 -98 106 -41 15 -51 23 -53 45 -3 22 2 27 25 32
15 4 43 2 61 -3 30 -9 34 -8 42 15 6 14 10 27 10 29 0 10 -95 21 -129 15 -50
-9 -67 -22 -81 -66 -18 -53 2 -83 83 -121 48 -23 67 -38 67 -52 0 -34 -25 -44
-96 -36 -207 22 -397 125 -525 285 -63 78 -140 234 -171 348 -21 75 -28 87
-81 140 l-59 57 7 -60z"/>
<path d="M4023 343 c-48 -6 -83 -44 -83 -90 0 -52 20 -76 77 -98 62 -23 73
-32 73 -61 0 -30 -36 -40 -97 -27 -42 10 -45 9 -54 -14 -5 -13 -9 -26 -9 -28
0 -1 22 -8 50 -15 103 -25 185 14 185 88 0 52 -23 77 -97 110 -41 17 -58 30
-58 44 0 28 39 42 84 30 35 -10 38 -9 47 14 12 34 13 32 -23 39 -56 11 -62 12
-95 8z"/>
<path d="M1402 204 l3 -136 32 -28 c41 -37 90 -46 144 -29 72 24 83 50 87 200
l4 129 -36 0 -36 0 0 -115 c0 -110 -1 -117 -25 -140 -27 -28 -52 -31 -81 -11
-17 13 -19 29 -22 140 l-4 126 -35 0 -35 0 4 -136z"/>
<path d="M2080 175 l0 -165 110 0 110 0 0 30 0 30 -75 0 -75 0 0 135 0 135
-35 0 -35 0 0 -165z"/>
<path d="M2620 310 c0 -29 1 -30 50 -30 l50 0 0 -135 0 -135 35 0 35 0 0 135
0 135 50 0 c49 0 50 1 50 30 l0 30 -135 0 -135 0 0 -30z"/>
<path d="M3270 333 c0 -5 25 -50 55 -102 51 -87 55 -98 55 -157 l0 -64 35 0
35 0 0 61 c0 43 5 69 19 87 10 15 37 62 61 105 l42 77 -39 0 c-38 0 -40 -2
-71 -65 -17 -36 -36 -65 -41 -65 -5 0 -24 29 -42 65 -33 62 -35 65 -71 65 -21
0 -38 -3 -38 -7z"/>
</g>
</svg>
